<svg xmlns="http://www.w3.org/2000/svg" viewBox="0 0 1020 400" font-family="ui-monospace,SFMono-Regular,Menlo,monospace" role="img" aria-label="Static model prediction overlaid on measured sibling-vs-same-CCX crossover, polite and both-busy producer">
<rect x="58" y="34.0" width="662" height="182.5" fill="#e0912f" opacity="0.05"/>
<rect x="58" y="216.5" width="662" height="131.5" fill="#14b8a6" opacity="0.06"/>
<rect x="469.3" y="34" width="131.6" height="314" fill="#8b7ff0" opacity="0.13"/>
<text x="535.1" y="26" text-anchor="middle" font-size="10.5" font-weight="700" fill="#8b7ff0">model W* band</text>
<line x1="58" y1="322.5" x2="720" y2="322.5" stroke="#8b949e" stroke-width="1" stroke-dasharray="2 4" opacity="0.35"/>
<text x="49" y="326.0" text-anchor="end" font-size="10.5" fill="#8b949e">-50</text>
<line x1="58" y1="269.5" x2="720" y2="269.5" stroke="#8b949e" stroke-width="1" stroke-dasharray="2 4" opacity="0.35"/>
<text x="49" y="273.0" text-anchor="end" font-size="10.5" fill="#8b949e">-25</text>
<line x1="58" y1="216.5" x2="720" y2="216.5" stroke="#8b949e" stroke-width="1.4" />
<text x="49" y="220.0" text-anchor="end" font-size="10.5" fill="#8b949e">0</text>
<line x1="58" y1="163.4" x2="720" y2="163.4" stroke="#8b949e" stroke-width="1" stroke-dasharray="2 4" opacity="0.35"/>
<text x="49" y="166.9" text-anchor="end" font-size="10.5" fill="#8b949e">+25</text>
<line x1="58" y1="110.4" x2="720" y2="110.4" stroke="#8b949e" stroke-width="1" stroke-dasharray="2 4" opacity="0.35"/>
<text x="49" y="113.9" text-anchor="end" font-size="10.5" fill="#8b949e">+50</text>
<line x1="58" y1="57.3" x2="720" y2="57.3" stroke="#8b949e" stroke-width="1" stroke-dasharray="2 4" opacity="0.35"/>
<text x="49" y="60.8" text-anchor="end" font-size="10.5" fill="#8b949e">+75</text>
<line x1="100.5" y1="34" x2="100.5" y2="348" stroke="#8b949e" stroke-width="1" stroke-dasharray="2 4" opacity="0.35"/>
<text x="100.5" y="365" text-anchor="middle" font-size="10.5" fill="#8b949e">50ns</text>
<line x1="183.2" y1="34" x2="183.2" y2="348" stroke="#8b949e" stroke-width="1" stroke-dasharray="2 4" opacity="0.35"/>
<text x="183.2" y="365" text-anchor="middle" font-size="10.5" fill="#8b949e">100ns</text>
<line x1="265.9" y1="34" x2="265.9" y2="348" stroke="#8b949e" stroke-width="1" stroke-dasharray="2 4" opacity="0.35"/>
<text x="265.9" y="365" text-anchor="middle" font-size="10.5" fill="#8b949e">200ns</text>
<line x1="375.2" y1="34" x2="375.2" y2="348" stroke="#8b949e" stroke-width="1" stroke-dasharray="2 4" opacity="0.35"/>
<text x="375.2" y="365" text-anchor="middle" font-size="10.5" fill="#8b949e">500ns</text>
<line x1="457.9" y1="34" x2="457.9" y2="348" stroke="#8b949e" stroke-width="1" stroke-dasharray="2 4" opacity="0.35"/>
<text x="457.9" y="365" text-anchor="middle" font-size="10.5" fill="#8b949e">1µs</text>
<line x1="540.6" y1="34" x2="540.6" y2="348" stroke="#8b949e" stroke-width="1" stroke-dasharray="2 4" opacity="0.35"/>
<text x="540.6" y="365" text-anchor="middle" font-size="10.5" fill="#8b949e">2µs</text>
<line x1="649.9" y1="34" x2="649.9" y2="348" stroke="#8b949e" stroke-width="1" stroke-dasharray="2 4" opacity="0.35"/>
<text x="649.9" y="365" text-anchor="middle" font-size="10.5" fill="#8b949e">5µs</text>
<text x="389.0" y="394" text-anchor="middle" font-size="11" fill="#8b949e">consumer work per message</text>
<text transform="translate(14,191.0) rotate(-90)" text-anchor="middle" font-size="11" fill="#8b949e">sibling &#8722; same-CCX (ns)</text>
<text x="64" y="341" font-size="10.5" font-weight="700" fill="#14b8a6">sibling faster &#8595;</text>
<text x="64" y="47" font-size="10.5" font-weight="700" fill="#e0912f">same-CCX faster &#8593;</text>
<polyline points="61.5 319.8 75.4 319.5 89.4 319.2 103.3 318.8 117.2 318.4 131.1 317.9 145.0 317.4 158.9 316.8 172.8 316.1 186.7 315.4 200.6 314.6 214.5 313.6 228.4 312.6 242.3 311.4 256.2 310.1 270.2 308.7 284.1 307.0 298.0 305.2 311.9 303.1 325.8 300.8 339.7 298.2 353.6 295.2 367.5 291.9 381.4 288.2 395.3 284.1 409.2 279.4 423.1 274.2 437.0 268.3 450.9 261.7 464.9 254.3 478.8 245.9 492.7 236.5 506.6 226.0 520.5 214.2 534.4 200.9 548.3 185.9 562.2 169.1 576.1 150.3 590.0 129.1 603.9 105.2 617.8 78.5 631.7 48.4 645.6 34.0 659.6 34.0 673.5 34.0 687.4 34.0 701.3 34.0 715.2 34.0" fill="none" stroke="#8b7ff0" stroke-width="2" stroke-dasharray="6 4" opacity="0.9"/>
<path d="M100.5 322.5 L214.5 322.5 L362.9 322.5 L524.2 280.1 L688.9 110.4" fill="none" stroke="#14b8a6" stroke-width="2.2" />
<circle cx="100.5" cy="322.5" r="4.5" fill="#14b8a6" stroke="#0d1117" stroke-width="0.6"/>
<circle cx="214.5" cy="322.5" r="4.5" fill="#14b8a6" stroke="#0d1117" stroke-width="0.6"/>
<circle cx="362.9" cy="322.5" r="4.5" fill="#14b8a6" stroke="#0d1117" stroke-width="0.6"/>
<circle cx="524.2" cy="280.1" r="4.5" fill="#14b8a6" stroke="#0d1117" stroke-width="0.6"/>
<circle cx="688.9" cy="110.4" r="4.5" fill="#14b8a6" stroke="#0d1117" stroke-width="0.6"/>
<path d="M-8.8 301.3 L73.9 301.3 L214.5 322.5 L362.9 301.3 L524.2 280.1 L688.9 34.0" fill="none" stroke="#e0912f" stroke-width="2.2" />
<circle cx="-8.8" cy="301.3" r="4.5" fill="#e0912f" stroke="#0d1117" stroke-width="0.6"/>
<circle cx="73.9" cy="301.3" r="4.5" fill="#e0912f" stroke="#0d1117" stroke-width="0.6"/>
<circle cx="214.5" cy="322.5" r="4.5" fill="#e0912f" stroke="#0d1117" stroke-width="0.6"/>
<circle cx="362.9" cy="301.3" r="4.5" fill="#e0912f" stroke="#0d1117" stroke-width="0.6"/>
<circle cx="524.2" cy="280.1" r="4.5" fill="#e0912f" stroke="#0d1117" stroke-width="0.6"/>
<circle cx="688.9" cy="34.0" r="4.5" fill="#e0912f" stroke="#0d1117" stroke-width="0.6"/>
<line x1="734" y1="42" x2="754" y2="42" stroke="#8b7ff0" stroke-width="2.2" stroke-dasharray="5 3"/>
<text x="760" y="45.5" font-size="10.5" fill="#8b949e">prediction (llvm-mca)</text>
<line x1="734" y1="64" x2="754" y2="64" stroke="#14b8a6" stroke-width="2.2"/><circle cx="744" cy="64" r="4" fill="#14b8a6"/>
<text x="760" y="67.5" font-size="10.5" fill="#8b949e">measured: polite producer</text>
<line x1="734" y1="86" x2="754" y2="86" stroke="#e0912f" stroke-width="2.2"/><circle cx="744" cy="86" r="4" fill="#e0912f"/>
<text x="760" y="89.5" font-size="10.5" fill="#8b949e">producer works as hard as consumer</text>
<text x="734" y="122" font-size="10" fill="#8b949e">crossover:</text>
<text x="734" y="138" font-size="10" fill="#e0912f">both busy: ~2.5µs</text>
<text x="734" y="153" font-size="10" fill="#8b7ff0">model ~1.7µs</text>
<text x="734" y="168" font-size="10" fill="#14b8a6">polite ~3.7µs</text>
</svg>
