<svg xmlns="http://www.w3.org/2000/svg" viewBox="0 0 760 380" font-family="ui-monospace,SFMono-Regular,Menlo,monospace" role="img" aria-label="Sibling minus same-CCX latency vs consumer processing weight, crossing zero near 3 microseconds">
<rect x="56" y="30" width="630" height="170.8" fill="#e0912f" opacity="0.07"/>
<rect x="56" y="200.8" width="630" height="129.2" fill="#14b8a6" opacity="0.08"/>
<line x1="56" y1="305.0" x2="686" y2="305.0" stroke="#8b949e" stroke-width="1" stroke-dasharray="2 4" opacity="0.4"/>
<text x="47" y="308.5" text-anchor="end" font-size="11" fill="#8b949e">-50</text>
<line x1="56" y1="252.9" x2="686" y2="252.9" stroke="#8b949e" stroke-width="1" stroke-dasharray="2 4" opacity="0.4"/>
<text x="47" y="256.4" text-anchor="end" font-size="11" fill="#8b949e">-25</text>
<line x1="56" y1="200.8" x2="686" y2="200.8" stroke="#8b949e" stroke-width="1.4"/>
<text x="47" y="204.3" text-anchor="end" font-size="11" fill="#8b949e">0</text>
<line x1="56" y1="148.8" x2="686" y2="148.8" stroke="#8b949e" stroke-width="1" stroke-dasharray="2 4" opacity="0.4"/>
<text x="47" y="152.2" text-anchor="end" font-size="11" fill="#8b949e">+25</text>
<line x1="56" y1="96.7" x2="686" y2="96.7" stroke="#8b949e" stroke-width="1" stroke-dasharray="2 4" opacity="0.4"/>
<text x="47" y="100.2" text-anchor="end" font-size="11" fill="#8b949e">+50</text>
<line x1="56" y1="44.6" x2="686" y2="44.6" stroke="#8b949e" stroke-width="1" stroke-dasharray="2 4" opacity="0.4"/>
<text x="47" y="48.1" text-anchor="end" font-size="11" fill="#8b949e">+75</text>
<line x1="90.8" y1="30" x2="90.8" y2="330" stroke="#8b949e" stroke-width="1" stroke-dasharray="2 4" opacity="0.4"/>
<text x="90.8" y="348" text-anchor="middle" font-size="11" fill="#8b949e">20ns</text>
<line x1="180.0" y1="30" x2="180.0" y2="330" stroke="#8b949e" stroke-width="1" stroke-dasharray="2 4" opacity="0.4"/>
<text x="180.0" y="348" text-anchor="middle" font-size="11" fill="#8b949e">50ns</text>
<line x1="247.6" y1="30" x2="247.6" y2="330" stroke="#8b949e" stroke-width="1" stroke-dasharray="2 4" opacity="0.4"/>
<text x="247.6" y="348" text-anchor="middle" font-size="11" fill="#8b949e">100ns</text>
<line x1="315.1" y1="30" x2="315.1" y2="330" stroke="#8b949e" stroke-width="1" stroke-dasharray="2 4" opacity="0.4"/>
<text x="315.1" y="348" text-anchor="middle" font-size="11" fill="#8b949e">200ns</text>
<line x1="404.4" y1="30" x2="404.4" y2="330" stroke="#8b949e" stroke-width="1" stroke-dasharray="2 4" opacity="0.4"/>
<text x="404.4" y="348" text-anchor="middle" font-size="11" fill="#8b949e">500ns</text>
<line x1="471.9" y1="30" x2="471.9" y2="330" stroke="#8b949e" stroke-width="1" stroke-dasharray="2 4" opacity="0.4"/>
<text x="471.9" y="348" text-anchor="middle" font-size="11" fill="#8b949e">1µs</text>
<line x1="539.5" y1="30" x2="539.5" y2="330" stroke="#8b949e" stroke-width="1" stroke-dasharray="2 4" opacity="0.4"/>
<text x="539.5" y="348" text-anchor="middle" font-size="11" fill="#8b949e">2µs</text>
<line x1="628.7" y1="30" x2="628.7" y2="330" stroke="#8b949e" stroke-width="1" stroke-dasharray="2 4" opacity="0.4"/>
<text x="628.7" y="348" text-anchor="middle" font-size="11" fill="#8b949e">5µs</text>
<text x="371.0" y="374" text-anchor="middle" font-size="11" fill="#8b949e" letter-spacing="0.04em">consumer processing per message</text>
<text transform="translate(15,180.0) rotate(-90)" text-anchor="middle" font-size="11" fill="#8b949e" letter-spacing="0.04em">sibling &#8722; same-CCX  (ns)</text>
<text x="64" y="322" font-size="11" font-weight="700" fill="#14b8a6">sibling faster &#8595;</text>
<text x="64" y="44" font-size="11" font-weight="700" fill="#e0912f">same-CCX faster &#8593;</text>
<text x="694" y="204.3" font-size="10.5" fill="#8b949e">0</text>
<rect x="556.9" y="30" width="23.3" height="300" fill="#8b7ff0" opacity="0.14"/>
<line x1="556.9" y1="30" x2="556.9" y2="330" stroke="#8b7ff0" stroke-width="1" stroke-dasharray="4 3" opacity="0.7"/>
<line x1="580.1" y1="30" x2="580.1" y2="330" stroke="#8b7ff0" stroke-width="1" stroke-dasharray="4 3" opacity="0.7"/>
<text x="568.5" y="22" text-anchor="middle" font-size="11" font-weight="700" fill="#8b7ff0">crossover &#8776; 2&#8211;3µs</text>
<path d="M90.8 305.2 L158.3 284.4 L265.3 284.4 L394.3 305.2 L526.1 242.5 L660.4 75.6" fill="none" stroke="#6b8cc4" stroke-width="2.4" stroke-linejoin="round" stroke-linecap="round"/>
<circle cx="90.8" cy="305.2" r="5" fill="#14b8a6" stroke="#0d1117" stroke-width="0.6"/>
<circle cx="158.3" cy="284.4" r="5" fill="#14b8a6" stroke="#0d1117" stroke-width="0.6"/>
<circle cx="265.3" cy="284.4" r="5" fill="#14b8a6" stroke="#0d1117" stroke-width="0.6"/>
<circle cx="394.3" cy="305.2" r="5" fill="#14b8a6" stroke="#0d1117" stroke-width="0.6"/>
<circle cx="526.1" cy="242.5" r="5" fill="#14b8a6" stroke="#0d1117" stroke-width="0.6"/>
<circle cx="660.4" cy="75.6" r="5" fill="#e0912f" stroke="#0d1117" stroke-width="0.6"/>
</svg>
