<svg xmlns="http://www.w3.org/2000/svg" viewBox="0 0 1020 420" font-family="ui-monospace,SFMono-Regular,Menlo,monospace" role="img" aria-label="Sibling minus same-CCX placement latency vs consumer work, for a polite producer, a paced both-busy producer, and an overlapping both-busy producer; the overlapping case makes the sibling lose far earlier.">
<rect x="58" y="34.0" width="662" height="242.6" fill="#e5484d" opacity="0.05"/>
<rect x="58" y="276.6" width="662" height="89.4" fill="#14b8a6" opacity="0.06"/>
<rect x="469.3" y="34" width="131.6" height="332" fill="#8b7ff0" opacity="0.13"/>
<text x="535.1" y="26" text-anchor="middle" font-size="10.5" font-weight="700" fill="#8b7ff0">model W* band</text>
<line x1="58" y1="340.5" x2="720" y2="340.5" stroke="#8b949e" stroke-width="1" stroke-dasharray="2 4" opacity="0.35"/>
<text x="49" y="344.0" text-anchor="end" font-size="10.5" fill="#8b949e">-50</text>
<line x1="58" y1="276.6" x2="720" y2="276.6" stroke="#8b949e" stroke-width="1.4" />
<text x="49" y="280.1" text-anchor="end" font-size="10.5" fill="#8b949e">0</text>
<line x1="58" y1="212.8" x2="720" y2="212.8" stroke="#8b949e" stroke-width="1" stroke-dasharray="2 4" opacity="0.35"/>
<text x="49" y="216.3" text-anchor="end" font-size="10.5" fill="#8b949e">+50</text>
<line x1="58" y1="148.9" x2="720" y2="148.9" stroke="#8b949e" stroke-width="1" stroke-dasharray="2 4" opacity="0.35"/>
<text x="49" y="152.4" text-anchor="end" font-size="10.5" fill="#8b949e">+100</text>
<line x1="58" y1="85.1" x2="720" y2="85.1" stroke="#8b949e" stroke-width="1" stroke-dasharray="2 4" opacity="0.35"/>
<text x="49" y="88.6" text-anchor="end" font-size="10.5" fill="#8b949e">+150</text>
<line x1="100.5" y1="34" x2="100.5" y2="366" stroke="#8b949e" stroke-width="1" stroke-dasharray="2 4" opacity="0.35"/>
<text x="100.5" y="383" text-anchor="middle" font-size="10.5" fill="#8b949e">50ns</text>
<line x1="183.2" y1="34" x2="183.2" y2="366" stroke="#8b949e" stroke-width="1" stroke-dasharray="2 4" opacity="0.35"/>
<text x="183.2" y="383" text-anchor="middle" font-size="10.5" fill="#8b949e">100ns</text>
<line x1="265.9" y1="34" x2="265.9" y2="366" stroke="#8b949e" stroke-width="1" stroke-dasharray="2 4" opacity="0.35"/>
<text x="265.9" y="383" text-anchor="middle" font-size="10.5" fill="#8b949e">200ns</text>
<line x1="375.2" y1="34" x2="375.2" y2="366" stroke="#8b949e" stroke-width="1" stroke-dasharray="2 4" opacity="0.35"/>
<text x="375.2" y="383" text-anchor="middle" font-size="10.5" fill="#8b949e">500ns</text>
<line x1="457.9" y1="34" x2="457.9" y2="366" stroke="#8b949e" stroke-width="1" stroke-dasharray="2 4" opacity="0.35"/>
<text x="457.9" y="383" text-anchor="middle" font-size="10.5" fill="#8b949e">1µs</text>
<line x1="540.6" y1="34" x2="540.6" y2="366" stroke="#8b949e" stroke-width="1" stroke-dasharray="2 4" opacity="0.35"/>
<text x="540.6" y="383" text-anchor="middle" font-size="10.5" fill="#8b949e">2µs</text>
<line x1="649.9" y1="34" x2="649.9" y2="366" stroke="#8b949e" stroke-width="1" stroke-dasharray="2 4" opacity="0.35"/>
<text x="649.9" y="383" text-anchor="middle" font-size="10.5" fill="#8b949e">5µs</text>
<text x="389.0" y="414" text-anchor="middle" font-size="11" fill="#8b949e">consumer work per message</text>
<text transform="translate(14,200.0) rotate(-90)" text-anchor="middle" font-size="11" fill="#8b949e">sibling &#8722; same-CCX (ns)</text>
<text x="64" y="359" font-size="10.5" font-weight="700" fill="#14b8a6">sibling faster &#8595;</text>
<text x="64" y="47" font-size="10.5" font-weight="700" fill="#e5484d">same-CCX faster &#8593;</text>
<polyline points="61.5 338.8 75.4 338.7 89.4 338.4 103.3 338.2 117.2 338.0 131.1 337.7 145.0 337.4 158.9 337.0 172.8 336.6 186.7 336.2 200.6 335.7 214.5 335.1 228.4 334.5 242.3 333.8 256.2 333.0 270.2 332.1 284.1 331.1 298.0 330.0 311.9 328.8 325.8 327.4 339.7 325.8 353.6 324.0 367.5 322.0 381.4 319.8 395.3 317.3 409.2 314.5 423.1 311.4 437.0 307.8 450.9 303.8 464.9 299.4 478.8 294.3 492.7 288.7 506.6 282.4 520.5 275.2 534.4 267.2 548.3 258.2 562.2 248.1 576.1 236.8 590.0 224.0 603.9 209.7 617.8 193.6 631.7 175.5 645.6 155.1 659.6 132.3 673.5 106.6 687.4 77.7 701.3 45.3 715.2 34.0" fill="none" stroke="#8b7ff0" stroke-width="2" stroke-dasharray="6 4" opacity="0.9"/>
<polyline points="61.5 339.1 75.4 338.9 89.4 338.7 103.3 338.5 117.2 338.3 131.1 338.0 145.0 337.7 158.9 337.3 172.8 337.0 186.7 336.5 200.6 336.0 214.5 335.5 228.4 334.9 242.3 334.2 256.2 333.4 270.2 332.5 284.1 331.5 298.0 330.4 311.9 329.2 325.8 317.4 339.7 295.1 353.6 269.9 367.5 241.7 381.4 209.9 395.3 174.3 409.2 134.2 423.1 89.2 437.0 38.6 450.9 34.0 464.9 34.0 478.8 34.0 492.7 34.0 506.6 34.0 520.5 34.0 534.4 34.0 548.3 34.0 562.2 34.0 576.1 34.0 590.0 34.0 603.9 34.0 617.8 34.0 631.7 34.0 645.6 34.0 659.6 34.0 673.5 34.0 687.4 34.0 701.3 34.0 715.2 34.0" fill="none" stroke="#e5484d" stroke-width="2" stroke-dasharray="3 3" opacity="0.75"/>
<line x1="214.5" y1="327.7" x2="214.5" y2="340.5" stroke="#14b8a6" stroke-width="1.3" opacity="0.55"/>
<line x1="211.5" y1="340.5" x2="217.5" y2="340.5" stroke="#14b8a6" stroke-width="1.3" opacity="0.55"/>
<line x1="211.5" y1="327.7" x2="217.5" y2="327.7" stroke="#14b8a6" stroke-width="1.3" opacity="0.55"/>
<line x1="362.9" y1="314.9" x2="362.9" y2="340.5" stroke="#14b8a6" stroke-width="1.3" opacity="0.55"/>
<line x1="359.9" y1="340.5" x2="365.9" y2="340.5" stroke="#14b8a6" stroke-width="1.3" opacity="0.55"/>
<line x1="359.9" y1="314.9" x2="365.9" y2="314.9" stroke="#14b8a6" stroke-width="1.3" opacity="0.55"/>
<line x1="524.2" y1="276.6" x2="524.2" y2="327.7" stroke="#14b8a6" stroke-width="1.3" opacity="0.55"/>
<line x1="521.2" y1="327.7" x2="527.2" y2="327.7" stroke="#14b8a6" stroke-width="1.3" opacity="0.55"/>
<line x1="521.2" y1="276.6" x2="527.2" y2="276.6" stroke="#14b8a6" stroke-width="1.3" opacity="0.55"/>
<line x1="688.9" y1="46.8" x2="688.9" y2="212.8" stroke="#14b8a6" stroke-width="1.3" opacity="0.55"/>
<line x1="685.9" y1="212.8" x2="691.9" y2="212.8" stroke="#14b8a6" stroke-width="1.3" opacity="0.55"/>
<line x1="685.9" y1="46.8" x2="691.9" y2="46.8" stroke="#14b8a6" stroke-width="1.3" opacity="0.55"/>
<path d="M100.5 327.7 L214.5 327.7 L362.9 327.7 L524.2 289.4 L688.9 46.8" fill="none" stroke="#14b8a6" stroke-width="2.2"/>
<circle cx="100.5" cy="327.7" r="4.3" fill="#14b8a6" stroke="#0d1117" stroke-width="0.6"/>
<circle cx="214.5" cy="327.7" r="4.3" fill="#14b8a6" stroke="#0d1117" stroke-width="0.6"/>
<circle cx="362.9" cy="327.7" r="4.3" fill="#14b8a6" stroke="#0d1117" stroke-width="0.6"/>
<circle cx="524.2" cy="289.4" r="4.3" fill="#14b8a6" stroke="#0d1117" stroke-width="0.6"/>
<circle cx="688.9" cy="46.8" r="4.3" fill="#14b8a6" stroke="#0d1117" stroke-width="0.6"/>
<line x1="100.5" y1="327.7" x2="100.5" y2="340.5" stroke="#e0912f" stroke-width="1.3" opacity="0.55"/>
<line x1="97.5" y1="340.5" x2="103.5" y2="340.5" stroke="#e0912f" stroke-width="1.3" opacity="0.55"/>
<line x1="97.5" y1="327.7" x2="103.5" y2="327.7" stroke="#e0912f" stroke-width="1.3" opacity="0.55"/>
<line x1="214.5" y1="327.7" x2="214.5" y2="353.2" stroke="#e0912f" stroke-width="1.3" opacity="0.55"/>
<line x1="211.5" y1="353.2" x2="217.5" y2="353.2" stroke="#e0912f" stroke-width="1.3" opacity="0.55"/>
<line x1="211.5" y1="327.7" x2="217.5" y2="327.7" stroke="#e0912f" stroke-width="1.3" opacity="0.55"/>
<line x1="362.9" y1="314.9" x2="362.9" y2="340.5" stroke="#e0912f" stroke-width="1.3" opacity="0.55"/>
<line x1="359.9" y1="340.5" x2="365.9" y2="340.5" stroke="#e0912f" stroke-width="1.3" opacity="0.55"/>
<line x1="359.9" y1="314.9" x2="365.9" y2="314.9" stroke="#e0912f" stroke-width="1.3" opacity="0.55"/>
<line x1="524.2" y1="276.6" x2="524.2" y2="314.9" stroke="#e0912f" stroke-width="1.3" opacity="0.55"/>
<line x1="521.2" y1="314.9" x2="527.2" y2="314.9" stroke="#e0912f" stroke-width="1.3" opacity="0.55"/>
<line x1="521.2" y1="276.6" x2="527.2" y2="276.6" stroke="#e0912f" stroke-width="1.3" opacity="0.55"/>
<line x1="688.9" y1="46.8" x2="688.9" y2="59.5" stroke="#e0912f" stroke-width="1.3" opacity="0.55"/>
<line x1="685.9" y1="59.5" x2="691.9" y2="59.5" stroke="#e0912f" stroke-width="1.3" opacity="0.55"/>
<line x1="685.9" y1="46.8" x2="691.9" y2="46.8" stroke="#e0912f" stroke-width="1.3" opacity="0.55"/>
<path d="M100.5 340.5 L214.5 340.5 L362.9 327.7 L524.2 276.6 L688.9 59.5" fill="none" stroke="#e0912f" stroke-width="2.2"/>
<circle cx="100.5" cy="340.5" r="4.3" fill="#e0912f" stroke="#0d1117" stroke-width="0.6"/>
<circle cx="214.5" cy="340.5" r="4.3" fill="#e0912f" stroke="#0d1117" stroke-width="0.6"/>
<circle cx="362.9" cy="327.7" r="4.3" fill="#e0912f" stroke="#0d1117" stroke-width="0.6"/>
<circle cx="524.2" cy="276.6" r="4.3" fill="#e0912f" stroke="#0d1117" stroke-width="0.6"/>
<circle cx="688.9" cy="59.5" r="4.3" fill="#e0912f" stroke="#0d1117" stroke-width="0.6"/>
<line x1="100.5" y1="327.7" x2="100.5" y2="340.5" stroke="#e5484d" stroke-width="1.3" opacity="0.55"/>
<line x1="97.5" y1="340.5" x2="103.5" y2="340.5" stroke="#e5484d" stroke-width="1.3" opacity="0.55"/>
<line x1="97.5" y1="327.7" x2="103.5" y2="327.7" stroke="#e5484d" stroke-width="1.3" opacity="0.55"/>
<line x1="214.5" y1="327.7" x2="214.5" y2="340.5" stroke="#e5484d" stroke-width="1.3" opacity="0.55"/>
<line x1="211.5" y1="340.5" x2="217.5" y2="340.5" stroke="#e5484d" stroke-width="1.3" opacity="0.55"/>
<line x1="211.5" y1="327.7" x2="217.5" y2="327.7" stroke="#e5484d" stroke-width="1.3" opacity="0.55"/>
<line x1="362.9" y1="251.1" x2="362.9" y2="276.6" stroke="#e5484d" stroke-width="1.3" opacity="0.55"/>
<line x1="359.9" y1="276.6" x2="365.9" y2="276.6" stroke="#e5484d" stroke-width="1.3" opacity="0.55"/>
<line x1="359.9" y1="251.1" x2="365.9" y2="251.1" stroke="#e5484d" stroke-width="1.3" opacity="0.55"/>
<path d="M100.5 327.7 L214.5 327.7 L362.9 276.6 L524.2 34.0" fill="none" stroke="#e5484d" stroke-width="2.2"/>
<circle cx="100.5" cy="327.7" r="4.3" fill="#e5484d" stroke="#0d1117" stroke-width="0.6"/>
<circle cx="214.5" cy="327.7" r="4.3" fill="#e5484d" stroke="#0d1117" stroke-width="0.6"/>
<circle cx="362.9" cy="276.6" r="4.3" fill="#e5484d" stroke="#0d1117" stroke-width="0.6"/>
<circle cx="524.2" cy="34.0" r="4.3" fill="#e5484d" stroke="#0d1117" stroke-width="0.6"/>
<text x="530.2" y="56.0" font-size="10" font-weight="700" fill="#e5484d">&#8593; +781 ns, saturates (INVALID) by 7µs</text>
<line x1="734" y1="42" x2="754" y2="42" stroke="#8b7ff0" stroke-width="2.2" stroke-dasharray="5 3"/>
<text x="760" y="45.5" font-size="10.5" fill="#8b949e">prediction (llvm-mca)</text>
<line x1="734" y1="63" x2="754" y2="63" stroke="#e5484d" stroke-width="2.2" stroke-dasharray="3 3"/>
<text x="760" y="66.5" font-size="10.5" fill="#8b949e">prediction (overlap, llvm-mca)</text>
<line x1="734" y1="84" x2="754" y2="84" stroke="#14b8a6" stroke-width="2.2"/><circle cx="744" cy="84" r="4" fill="#14b8a6"/>
<text x="760" y="87.5" font-size="10.5" fill="#8b949e">measured: polite producer</text>
<line x1="734" y1="105" x2="754" y2="105" stroke="#e0912f" stroke-width="2.2"/><circle cx="744" cy="105" r="4" fill="#e0912f"/>
<text x="760" y="108.5" font-size="10.5" fill="#8b949e">measured: both busy, paced apart</text>
<line x1="734" y1="126" x2="754" y2="126" stroke="#e5484d" stroke-width="2.2"/><circle cx="744" cy="126" r="4" fill="#e5484d"/>
<text x="760" y="129.5" font-size="10.5" fill="#8b949e">measured: both busy, OVERLAPPING</text>
<text x="734" y="159" font-size="10" fill="#8b949e">crossover (sibling stops winning):</text>
<text x="734" y="175" font-size="10" fill="#14b8a6">polite / paced: ~2&#8211;3.7µs</text>
<text x="734" y="190" font-size="10" fill="#e5484d">overlapping: below ~0.5µs (then off scale)</text>
<text x="734" y="205" font-size="10" fill="#8b7ff0">model W*: ~1.7µs</text>
<text x="734" y="220" font-size="10" fill="#e5484d">model overlap W*: ~0.4µs</text>
</svg>
